<svg xmlns="http://www.w3.org/2000/svg" viewBox="0 0 1200 800" role="img" aria-labelledby="title desc">
  <title id="title">Fatalii landscape</title>
  <desc id="desc">Stylized African savanna pepper-growing landscape.</desc>
  <defs>
    <linearGradient id="sky" x1="0" x2="0" y1="0" y2="1">
      <stop offset="0%" stop-color="#f6cf86"/>
      <stop offset="50%" stop-color="#efe0bf"/>
      <stop offset="100%" stop-color="#d0c889"/>
    </linearGradient>
  </defs>
  <rect width="1200" height="800" fill="url(#sky)"/>
  <circle cx="988" cy="166" r="82" fill="#ffbe55" opacity=".72"/>
  <path d="M0 378 C196 326 372 334 536 384 C726 440 900 442 1200 388 V800 H0Z" fill="#c5a058"/>
  <path d="M0 508 C216 468 418 473 612 536 C804 599 1008 608 1200 566 V800 H0Z" fill="#aa8646"/>
  <path d="M0 634 C248 608 470 622 680 684 C884 744 1060 742 1200 718 V800 H0Z" fill="#845f35"/>
  <path d="M236 640 l10-126 l18 0 l11 126" fill="#54422b"/>
  <path d="M182 592 C210 534 254 510 315 514 C288 560 242 585 182 592Z" fill="#7d8c4e"/>
  <path d="M850 595 C876 544 922 520 982 528 C952 570 909 590 850 595Z" fill="#7a884b"/>
</svg>
