<svg xmlns="http://www.w3.org/2000/svg" viewBox="0 0 1600 900" fill="none">
  <defs>
    <linearGradient id="bg" x1="123" y1="88" x2="1496" y2="790" gradientUnits="userSpaceOnUse">
      <stop stop-color="#132c24"/>
      <stop offset=".5" stop-color="#355d46"/>
      <stop offset="1" stop-color="#241713"/>
    </linearGradient>
    <radialGradient id="plate" cx="0" cy="0" r="1" gradientTransform="translate(812 560) rotate(90) scale(170 420)" gradientUnits="userSpaceOnUse">
      <stop stop-color="#dfe3cc"/>
      <stop offset="1" stop-color="#7b8e6d"/>
    </radialGradient>
  </defs>
  <rect width="1600" height="900" rx="36" fill="url(#bg)"/>
  <ellipse cx="808" cy="655" rx="480" ry="120" fill="#1a1512"/>
  <ellipse cx="808" cy="560" rx="430" ry="150" fill="url(#plate)"/>
  <ellipse cx="808" cy="560" rx="380" ry="120" fill="#7aac68"/>
  <path d="M727 442C789 406 886 414 951 467C1018 521 1032 597 993 654C955 709 870 729 780 701C664 664 594 582 624 509C638 476 676 451 727 442Z" fill="#c9382d"/>
  <path d="M706 450C734 423 781 411 823 414C786 451 756 489 747 541C704 520 684 479 706 450Z" fill="#77983d"/>
  <g opacity=".92">
    <path d="M588 580C671 474 783 449 888 471C1012 496 1080 595 1046 663C1013 730 890 750 742 715C616 684 531 653 523 613C518 592 543 575 588 580Z" fill="#6f9e57"/>
    <path d="M515 579C579 518 673 498 798 510C686 558 640 602 620 681C553 662 505 627 515 579Z" fill="#487551"/>
  </g>
  <g fill="#264f37">
    <path d="M419 565C497 524 562 501 614 486C568 544 559 603 568 660C491 643 436 609 419 565Z"/>
    <path d="M1031 473C1095 503 1158 552 1184 609C1137 638 1080 654 1022 660C1054 613 1059 542 1031 473Z"/>
    <path d="M708 340C768 349 832 381 873 430C818 425 762 433 721 453C705 412 698 372 708 340Z"/>
  </g>
  <circle cx="317" cy="196" r="89" fill="#b8cf8d" opacity=".2"/>
  <circle cx="1301" cy="178" r="102" fill="#f3d58d" opacity=".12"/>
</svg>
